<svg xmlns="http://www.w3.org/2000/svg" xmlns:xlink="http://www.w3.org/1999/xlink" viewBox="0 0 85.25 85.25"><defs><style>.cls-1{fill:url(#Unbenannter_Verlauf_26);}.cls-2{fill:#fff;}</style><linearGradient id="Unbenannter_Verlauf_26" x1="-3.19" y1="72.37" x2="88.43" y2="12.87" gradientUnits="userSpaceOnUse"><stop offset="0.33" stop-color="#0090e1"/><stop offset="0.44" stop-color="#0291dc"/><stop offset="0.57" stop-color="#0895cc"/><stop offset="0.72" stop-color="#129cb3"/><stop offset="0.88" stop-color="#1fa58f"/><stop offset="1" stop-color="#2bad70"/></linearGradient></defs><g id="Ebene_2" data-name="Ebene 2"><g id="Ebene_4" data-name="Ebene 4"><rect class="cls-1" width="85.25" height="85.25" rx="11.3"/><path class="cls-2" d="M46.42,27.41a2.38,2.38,0,1,1,2.38,2.35A2.35,2.35,0,0,1,46.42,27.41Z"/><path class="cls-2" d="M53.35,14.66a2.28,2.28,0,1,1,2.26,2.24A2.21,2.21,0,0,1,53.35,14.66Zm.41,3.27h3.68V29.52H53.76Z"/><path class="cls-2" d="M59.85,21.1a8.6,8.6,0,0,1,9-8.89,8.61,8.61,0,0,1,9,8.89,8.61,8.61,0,0,1-9,8.9A8.61,8.61,0,0,1,59.85,21.1Zm13.92,0c0-2.93-1.73-5.41-4.93-5.41s-5,2.48-4.93,5.41,1.71,5.42,4.93,5.42S73.77,24,73.77,21.1Z"/><path class="cls-2" d="M63.62,51.49,76.84,32.85h-14L56.44,43.77,50.1,32.85H45.05a19,19,0,0,1,3,3,26.16,26.16,0,0,1,1.73,2.45l4.06,7,2.58,4.44L59,45.29l5.54-9.44H71L61.17,49.76l-1.23,1.73,1.23,1.74L71.26,67.45H64.8L59,57.69,56.43,53.3l-2.58,4.4s-.93,1.57-3,5.12S48,67.45,48,67.45a19.22,19.22,0,0,1-3,3h4.94l6.57-11.23,6.65,11.23h14Z"/><path class="cls-2" d="M50.12,51.65c0,11.78-7.1,19.81-17.26,19.81-5.42,0-9.86-2.81-11.69-6.32v5.31H9.48V15.77H21.17V38.23c1.91-3.59,6.49-6.39,12-6.39C43.25,31.84,50.12,39.79,50.12,51.65Zm-11.91,0c0-5.77-3.59-9.83-8.71-9.83-5.27,0-8.86,4-8.86,9.83s3.66,9.91,8.86,9.91S38.21,57.5,38.21,51.65Z"/></g></g></svg>